<svg xmlns="http://www.w3.org/2000/svg" viewBox="0 0 7015.00 2250.00" role="img" aria-label="БЕЗ КВЕСТА / НА 48 УРОВНЕЙ."><g fill="#0A0A0A" fill-rule="evenodd"><path d="M189.0498046875 88.2353515625C126.8779296875 88.869140625 123.3486328125 117.1044921875 118.37109375 193.9365234375C113.3935546875 270.76953125 205.97265625 279.9091796875 205.97265625 279.9091796875C210.70703125 280.154296875 218.3955078125 280.3525390625 223.1357421875 280.3525390625C232.4599609375 280.3525390625 247.556640625 279.5859375 256.8330078125 278.642578125C288.5068359375 276.0185546875 307.6923828125 255.927734375 307.6923828125 166.787109375C307.6923828125 77.6474609375 251.130859375 87.6015625 189.0498046875 88.2353515625ZM438.4619140625 365.158203125C215.2939453125 362.8955078125 188.6875 311.673828125 188.6875 430.6787109375C188.6875 525.068359375 190.9501953125 525.068359375 270.6787109375 524.4345703125C271.90234375 524.4248046875 273.8876953125 524.41796875 275.1103515625 524.41796875C303.5576171875 524.41796875 349.3720703125 528.4794921875 377.3759765625 533.484375L380.814453125 700.0H20.0L46.6064453125 13.9365234375C46.6064453125 13.9365234375 420.1806640625 -37.013671875 450.6787109375 49.501953125C463.517578125 90.8193359375 473.9375 159.4658203125 473.9375 202.7314453125C473.9375 202.90234375 473.9365234375 203.1787109375 473.9365234375 203.3486328125C474.02734375 239.2763671875 486.697265625 365.158203125 438.4619140625 365.158203125Z" transform="translate(60.00,900.00) scale(1,-1)"/><path d="M24 695V-5L380.6962890625 19.14453125V209.564453125H166.1318359375V416.0205078125H302.9794921875V539.474609375H104.4501953125V611.81640625H396.8232421875V695.0Z" transform="translate(577.00,900.00) scale(1,-1)"/><path d="M20.0029296875 514.94921875 217.0888671875 489.33984375C217.0888671875 489.33984375 214.2841796875 537.8427734375 240.5263671875 566.2568359375C266.767578125 594.669921875 389.380859375 577.2060546875 421.5048828125 559.921875C453.62890625 542.638671875 441.4130859375 452.873046875 418.06640625 421.2021484375C394.7197265625 389.5302734375 184.33203125 390.8876953125 184.33203125 390.8876953125V274.2470703125C184.33203125 274.2470703125 263.69140625 280.8525390625 292.9189453125 266.826171875C322.1474609375 252.80078125 288.666015625 73.8125 278.44140625 56.34765625C268.2158203125 38.8837890625 183.7890625 44.6748046875 158.1806640625 64.58203125C132.572265625 84.490234375 150.669921875 131.544921875 150.669921875 131.544921875H60.1806640625C60.1806640625 131.544921875 45.7021484375 51.0087890625 71.6728515625 34.087890625C97.642578125 17.166015625 169.1298828125 9.3837890625 220.255859375 5.8544921875C271.3828125 2.3251953125 437.8837890625 6.216796875 464.578125 43.498046875C491.2724609375 80.7802734375 494.982421875 222.5771484375 467.3828125 260.6728515625C439.7841796875 298.76953125 315.0888671875 331.5263671875 315.0888671875 331.5263671875C315.0888671875 331.5263671875 476.7939453125 353.8779296875 494.8916015625 397.7646484375C512.990234375 441.65234375 520.2294921875 631.58984375 476.7939453125 658.8271484375C433.359375 686.064453125 93.48046875 712.306640625 56.19921875 693.755859375C18.9169921875 675.2060546875 20.0029296875 514.94921875 20.0029296875 514.94921875Z" transform="translate(1013.00,900.00) scale(1,-1)"/><path d="M24 -5 122.1474609375 20.669921875V229.75390625L237.4375 255.42578125L322.794921875 -0.736328125H510.5625L309.9150390625 281.0048828125L531.87890625 665.1572265625L382.4814453125 695.0L305.6513671875 430.40234375H211.767578125V630.9599609375H24.0Z" transform="translate(1919.00,900.00) scale(1,-1)"/><path d="M384.9765625 160.3662109375C384.9765625 152.041015625 382.673828125 138.91796875 379.8779296875 131.076171875C377.8388671875 125.7001953125 361.3408203125 128.294921875 361.3408203125 128.294921875H93.0009765625L98.0986328125 294.119140625C98.0986328125 294.119140625 209.9765625 284.015625 250.9453125 281.6982421875C291.9150390625 279.380859375 359.486328125 264.2724609375 368.6630859375 253.0576171875C374.533203125 244.271484375 380.2216796875 228.6171875 381.361328125 218.1123046875C382.2880859375 213.0146484375 385.2548828125 169.6357421875 384.9765625 160.3662109375ZM216.650390625 630.123046875C216.71484375 630.123046875 216.8212890625 630.1240234375 216.88671875 630.1240234375C225.58203125 630.1240234375 236.1064453125 623.9775390625 240.37890625 616.404296875C247.8603515625 592.6220703125 254.337890625 553.08984375 254.8388671875 528.1630859375C256.322265625 492.19921875 252.892578125 441.775390625 246.4033203125 429.5400390625C242.8515625 421.361328125 232.927734375 413.056640625 224.2509765625 411.001953125C214.9814453125 408.8701171875 134.8046875 411.46484375 134.8046875 411.46484375L131.7451171875 624.654296875C131.7451171875 624.654296875 205.15625 630.123046875 216.650390625 630.123046875ZM421.21875 293.099609375C374.224609375 324.2431640625 284.5927734375 353.1630859375 257.0634765625 359.55859375C255.607421875 359.904296875 254.42578125 361.3984375 254.42578125 362.8955078125C254.42578125 364.392578125 255.607421875 365.88671875 257.0634765625 366.232421875C284.8701171875 374.759765625 373.9462890625 384.7705078125 409.3544921875 413.59765625C434.658203125 433.8037109375 432.619140625 522.87890625 432.619140625 522.87890625C432.623046875 523.5498046875 432.6259765625 524.638671875 432.6259765625 525.30859375C432.6259765625 548.705078125 428.927734375 586.3193359375 424.3701171875 609.267578125C416.1201171875 641.24609375 370.9794921875 688.7958984375 322.8740234375 691.576171875C293.02734375 693.6162109375 244.4580078125 695.4697265625 202.09765625 695.005859375C133.228515625 693.8935546875 52.3095703125 685.1806640625 35.810546875 680.5458984375C33.0458984375 679.7822265625 30.76171875 676.833984375 30.712890625 673.96484375L22.0 -4.80859375C22.0 -4.80859375 78.6337890625 -7.681640625 215.7236328125 6.9638671875C289.8759765625 14.841796875 415.2861328125 23.6474609375 450.1376953125 26.798828125C459.5009765625 27.59765625 467.1005859375 35.873046875 467.1005859375 45.2705078125V45.3369140625C468.6767578125 97.05859375 469.880859375 260.47265625 421.21875 293.099609375Z" transform="translate(2490.00,900.00) scale(1,-1)"/><path d="M24 695V-5L380.6962890625 19.14453125V209.564453125H166.1318359375V416.0205078125H302.9794921875V539.474609375H104.4501953125V611.81640625H396.8232421875V695.0Z" transform="translate(2998.00,900.00) scale(1,-1)"/><path d="M297.890625 458.669921875H467.2060546875C467.2060546875 458.669921875 480.7001953125 692.126953125 433.0107421875 693.513671875C385.3203125 694.8994140625 171.4580078125 703.40234375 61.568359375 655.158203125C39.1748046875 646.6689453125 21.0 620.3427734375 21.0 596.3935546875C21.0 594.521484375 21.1640625 591.4921875 21.365234375 589.6318359375L23.2138671875 360.5185546875C23.2138671875 360.5185546875 17.8525390625 105.0654296875 57.3173828125 54.51171875C96.78125 3.95703125 372.5673828125 -3.62109375 448.07421875 -5.0078125C448.177734375 -5.009765625 448.3427734375 -5.01171875 448.4443359375 -5.01171875C458.6953125 -5.01171875 467.8056640625 3.271484375 468.77734375 13.4765625L484.3046875 199.3359375L295.025390625 216.8037109375L296.4111328125 117.173828125C296.4111328125 117.173828125 294.83984375 80.205078125 249.4609375 80.205078125C208.888671875 80.205078125 170.44140625 90.185546875 161.19921875 118.65234375C151.95703125 147.1181640625 155.8388671875 333.716796875 155.8388671875 333.716796875L161.19921875 561.2587890625C161.19921875 561.2587890625 157.6865234375 609.5029296875 218.1298828125 609.6875C278.57421875 609.8720703125 296.966796875 588.1533203125 297.7978515625 574.1044921875Z" transform="translate(3434.00,900.00) scale(1,-1)"/><path d="M144.54296875 484.5556640625 127.3994140625 -5.0 269.0869140625 12.234375 251.8515625 536.078125 466.5595703125 518.9345703125V695.0H20.0V484.5556640625Z" transform="translate(3957.00,900.00) scale(1,-1)"/><path d="M232.458984375 285.5283203125 266.2666015625 548.4638671875 343.8662109375 555.998046875 398.958984375 293.0625ZM531.462890625 2.5341796875 428.2470703125 695.0 74.6220703125 671.173828125V511.0771484375L151.8447265625 513.431640625L20.0 12.5166015625L168.7958984375 20.05078125V160.2763671875L338.310546875 162.818359375V-5.0Z" transform="translate(4465.00,900.00) scale(1,-1)"/></g><g fill="none" stroke="#0A0A0A" stroke-width="18" stroke-linejoin="round" stroke-linecap="round"><path d="M24 0.560546875H244.4482421875V187.9150390625H354.671875V-5.0H464.896484375L442.8330078125 678.498046875H354.671875V336.794921875H178.3505859375V681.2333984375L24.0 695.0Z" transform="translate(60.00,1920.00) scale(1,-1)"/><path d="M232.458984375 285.5283203125 266.2666015625 548.4638671875 343.8662109375 555.998046875 398.958984375 293.0625ZM531.462890625 2.5341796875 428.2470703125 695.0 74.6220703125 671.173828125V511.0771484375L151.8447265625 513.431640625L20.0 12.5166015625L168.7958984375 20.05078125V160.2763671875L338.310546875 162.818359375V-5.0Z" transform="translate(565.00,1920.00) scale(1,-1)"/><path d="M22.0068359375 662.095703125V292.619140625C22.0068359375 292.619140625 20.822265625 210.615234375 49.341796875 175.1708984375C77.861328125 139.7265625 172.5302734375 150.66015625 239.7744140625 161.685546875L200.5947265625 -10.7060546875H455.08203125V148.2919921875L594.5810546875 180.0908203125V258.3603515625L472.2119140625 248.6103515625L528.4306640625 620.4560546875C528.4306640625 620.4560546875 461.1865234375 648.6103515625 344.9228515625 647.7900390625C344.9228515625 647.7900390625 324.1484375 390.2958984375 313.123046875 302.82421875C311.6650390625 291.5263671875 310.025390625 261.822265625 300.9130859375 258.8154296875C280.5947265625 252.0732421875 190.8447265625 220.9111328125 164.2392578125 239.2255859375C137.6328125 257.5400390625 188.111328125 420.4560546875 210.7080078125 476.1279296875C239.7744140625 548.9296875 266.015625 700.0 266.015625 700.0Z" transform="translate(1493.00,1920.00) scale(1,-1)"/><path d="M398.1875 409.5947265625 293.0009765625 404.380859375C292.935546875 404.380859375 292.830078125 404.3798828125 292.765625 404.3798828125C284.171875 404.3798828125 276.08203125 411.2646484375 274.7080078125 419.7470703125L255.865234375 558.958984375C255.7880859375 559.8212890625 255.7255859375 561.2236328125 255.7255859375 562.0888671875C255.7255859375 579.89453125 270.1298828125 595.498046875 287.87890625 596.91796875L397.638671875 604.966796875C397.873046875 604.9814453125 398.2548828125 604.9931640625 398.490234375 604.9931640625C405.6884765625 604.9931640625 411.904296875 599.162109375 412.3642578125 591.978515625L420.0478515625 431.6376953125C420.0 419.6171875 410.2060546875 409.701171875 398.1875 409.5029296875ZM358.3076171875 259.3154296875 346.69140625 139.12890625C344.0517578125 124.83203125 330.109375 113.228515625 315.5703125 113.228515625C314.5888671875 113.228515625 313.0009765625 113.3173828125 312.0263671875 113.4267578125L191.4736328125 123.7626953125C174.06640625 126.189453125 159.9384765625 142.423828125 159.9384765625 159.9990234375C159.9384765625 160.6259765625 159.9697265625 161.6435546875 160.0087890625 162.2705078125L176.47265625 273.767578125C177.5634765625 281.861328125 185.076171875 288.4296875 193.2431640625 288.4296875C193.51171875 288.4296875 193.9482421875 288.41796875 194.2177734375 288.40234375L342.30078125 279.255859375C351.216796875 278.4521484375 358.453125 270.5341796875 358.453125 261.5830078125C358.453125 260.9541015625 358.3876953125 259.9384765625 358.3076171875 259.3154296875ZM548.6494140625 340.080078125C525.998046875 349.6376953125 490.3896484375 367.462890625 469.1650390625 379.8681640625C467.6572265625 380.8369140625 466.4345703125 383.078125 466.4345703125 384.8701171875C466.4345703125 386.42578125 467.4111328125 388.4873046875 468.6162109375 389.47265625C524.2275390625 436.486328125 541.7890625 473.62109375 545.3564453125 496.212890625C548.923828125 518.8056640625 552.3994140625 584.1123046875 467.4267578125 647.3154296875C369.6494140625 720.03125 213.0595703125 714.3603515625 120.7705078125 649.236328125C28.48046875 584.1123046875 3.8759765625 446.9130859375 31.9560546875 404.380859375C55.3720703125 368.892578125 130.740234375 341.5439453125 154.521484375 332.9462890625C155.9296875 332.470703125 157.072265625 330.87890625 157.072265625 329.392578125C157.072265625 328.220703125 156.2578125 326.7802734375 155.2529296875 326.177734375C131.9287109375 311.8173828125 52.5361328125 261.419921875 48.419921875 234.9853515625C33.6025390625 130.7138671875 120.7705078125 45.650390625 144.3681640625 32.296875C167.966796875 18.9423828125 192.3876953125 -0.72265625 312.9404296875 -5.9365234375C433.4931640625 -11.1494140625 520.5693359375 67.236328125 568.5888671875 160.806640625C616.6083984375 254.376953125 598.498046875 318.4033203125 548.6494140625 340.080078125Z" transform="translate(2130.00,1920.00) scale(1,-1)"/><path d="M199.927734375 700H20.0L37.34765625 368.6650390625C41.2353515625 335.568359375 65.6494140625 291.9892578125 91.84375 271.3896484375C140.98046875 232.4248046875 177.6748046875 227.974609375 237.166015625 226.884765625C296.6572265625 225.794921875 333.2607421875 226.884765625 333.2607421875 226.884765625L335.349609375 113.533203125C335.349609375 113.533203125 336.3486328125 62.306640625 298.564453125 61.216796875C260.78125 60.126953125 238.255859375 72.1162109375 224.9951171875 83.015625C215.7861328125 91.3486328125 202.0322265625 105.9970703125 194.2958984375 115.712890625H87.484375L114.005859375 0.6357421875H385.9404296875C385.9404296875 0.6357421875 418.6376953125 18.80078125 449.5185546875 122.70703125C480.3994140625 226.6123046875 502.470703125 671.662109375 502.470703125 671.662109375H378.85546875C374.521484375 671.490234375 371.0048828125 667.8310546875 371.0048828125 663.494140625C371.0048828125 662.375 371.4296875 660.6630859375 371.953125 659.6728515625C391.478515625 618.0556640625 407.3251953125 546.970703125 407.3251953125 501.0009765625C407.3251953125 493.6455078125 406.900390625 481.72265625 406.3759765625 474.38671875C399.201171875 353.40625 385.9404296875 274.568359375 289.845703125 277.111328125C178.9462890625 279.564453125 137.529296875 309.4462890625 134.44140625 359.9453125C129.9912109375 433.2421875 191.84375 633.423828125 208.9189453125 686.9208984375C209.2099609375 687.7763671875 209.4462890625 689.2041015625 209.4462890625 690.107421875C209.4462890625 695.365234375 205.181640625 699.7978515625 199.927734375 700.0Z" transform="translate(3126.00,1920.00) scale(1,-1)"/><path d="M230.59765625 234.3671875C212.451171875 219.3056640625 161.1875 222.208984375 137.6875 224.38671875C131.2236328125 225.01953125 125.9765625 230.8037109375 125.9765625 237.2998046875C125.9765625 237.4169921875 125.9794921875 237.607421875 125.9833984375 237.724609375L137.3251953125 610.9970703125C137.3251953125 616.005859375 141.3896484375 620.0703125 146.3984375 620.0703125H194.939453125C195.0 620.0712890625 195.09765625 620.0712890625 195.158203125 620.0712890625C209.2216796875 620.0712890625 224.0419921875 609.1767578125 228.2392578125 595.75390625C237.3125 566.447265625 246.384765625 507.2900390625 247.564453125 399.681640625C249.560546875 265.3974609375 254.732421875 254.146484375 230.59765625 234.3671875ZM450.986328125 389.337890625C449.2626953125 511.5546875 451.8037109375 581.3271484375 435.4716796875 613.1748046875C419.1396484375 645.0224609375 384.6611328125 680.31640625 345.9189453125 685.7607421875C307.17578125 691.2041015625 164.36328125 697.5556640625 115.27734375 694.1083984375C89.7958984375 692.2119140625 48.904296875 686.033203125 24.0 680.31640625V-4.984375L228.8740234375 3.634765625V146.5390625C228.8740234375 146.5390625 386.384765625 149.986328125 409.703125 173.7578125C433.021484375 197.5302734375 452.7109375 267.1220703125 450.986328125 389.337890625Z" transform="translate(3667.00,1920.00) scale(1,-1)"/><path d="M315.4560546875 80.1025390625C299.248046875 67.4970703125 230.544921875 68.9365234375 230.544921875 68.9365234375C230.544921875 68.9365234375 164.6328125 68.9365234375 143.3828125 89.0166015625C122.1318359375 109.0966796875 132.7578125 291.794921875 132.7578125 291.794921875C132.7578125 291.794921875 137.7998046875 482.328125 159.05078125 509.0712890625C180.30078125 535.8134765625 239.4599609375 533.6533203125 239.4599609375 533.6533203125C239.4599609375 533.6533203125 300.869140625 526.9892578125 317.70703125 500.15625C334.544921875 473.3232421875 334.455078125 358.2470703125 335.716796875 276.66796875C336.9765625 195.087890625 338.3271484375 98.021484375 315.4560546875 80.1025390625ZM505.3583984375 319.2587890625C505.3583984375 319.2587890625 497.5244140625 528.16015625 478.345703125 598.3935546875C459.166015625 668.62890625 438.3662109375 692.3994140625 373.5341796875 695.0107421875C326.6220703125 696.271484375 241.7109375 692.3994140625 241.7109375 692.3994140625L121.412109375 689.068359375C121.412109375 689.068359375 65.224609375 690.1484375 47.3056640625 652.150390625C29.38671875 614.1513671875 22.3642578125 350.50390625 22.3642578125 350.50390625C22.3642578125 350.50390625 16.78125 58.9423828125 49.376953125 26.3466796875C81.97265625 -6.2490234375 237.1181640625 -2.73828125 237.1181640625 -2.73828125C237.1181640625 -2.73828125 408.201171875 -17.234375 462.767578125 24.275390625C517.333984375 65.78515625 505.3583984375 319.2587890625 505.3583984375 319.2587890625Z" transform="translate(4160.00,1920.00) scale(1,-1)"/><path d="M384.9765625 160.3662109375C384.9765625 152.041015625 382.673828125 138.91796875 379.8779296875 131.076171875C377.8388671875 125.7001953125 361.3408203125 128.294921875 361.3408203125 128.294921875H93.0009765625L98.0986328125 294.119140625C98.0986328125 294.119140625 209.9765625 284.015625 250.9453125 281.6982421875C291.9150390625 279.380859375 359.486328125 264.2724609375 368.6630859375 253.0576171875C374.533203125 244.271484375 380.2216796875 228.6171875 381.361328125 218.1123046875C382.2880859375 213.0146484375 385.2548828125 169.6357421875 384.9765625 160.3662109375ZM216.650390625 630.123046875C216.71484375 630.123046875 216.8212890625 630.1240234375 216.88671875 630.1240234375C225.58203125 630.1240234375 236.1064453125 623.9775390625 240.37890625 616.404296875C247.8603515625 592.6220703125 254.337890625 553.08984375 254.8388671875 528.1630859375C256.322265625 492.19921875 252.892578125 441.775390625 246.4033203125 429.5400390625C242.8515625 421.361328125 232.927734375 413.056640625 224.2509765625 411.001953125C214.9814453125 408.8701171875 134.8046875 411.46484375 134.8046875 411.46484375L131.7451171875 624.654296875C131.7451171875 624.654296875 205.15625 630.123046875 216.650390625 630.123046875ZM421.21875 293.099609375C374.224609375 324.2431640625 284.5927734375 353.1630859375 257.0634765625 359.55859375C255.607421875 359.904296875 254.42578125 361.3984375 254.42578125 362.8955078125C254.42578125 364.392578125 255.607421875 365.88671875 257.0634765625 366.232421875C284.8701171875 374.759765625 373.9462890625 384.7705078125 409.3544921875 413.59765625C434.658203125 433.8037109375 432.619140625 522.87890625 432.619140625 522.87890625C432.623046875 523.5498046875 432.6259765625 524.638671875 432.6259765625 525.30859375C432.6259765625 548.705078125 428.927734375 586.3193359375 424.3701171875 609.267578125C416.1201171875 641.24609375 370.9794921875 688.7958984375 322.8740234375 691.576171875C293.02734375 693.6162109375 244.4580078125 695.4697265625 202.09765625 695.005859375C133.228515625 693.8935546875 52.3095703125 685.1806640625 35.810546875 680.5458984375C33.0458984375 679.7822265625 30.76171875 676.833984375 30.712890625 673.96484375L22.0 -4.80859375C22.0 -4.80859375 78.6337890625 -7.681640625 215.7236328125 6.9638671875C289.8759765625 14.841796875 415.2861328125 23.6474609375 450.1376953125 26.798828125C459.5009765625 27.59765625 467.1005859375 35.873046875 467.1005859375 45.2705078125V45.3369140625C468.6767578125 97.05859375 469.880859375 260.47265625 421.21875 293.099609375Z" transform="translate(4707.00,1920.00) scale(1,-1)"/><path d="M24 0.560546875H244.4482421875V187.9150390625H354.671875V-5.0H464.896484375L442.8330078125 678.498046875H354.671875V336.794921875H178.3505859375V681.2333984375L24.0 695.0Z" transform="translate(5215.00,1920.00) scale(1,-1)"/><path d="M24 695V-5L380.6962890625 19.14453125V209.564453125H166.1318359375V416.0205078125H302.9794921875V539.474609375H104.4501953125V611.81640625H396.8232421875V695.0Z" transform="translate(5720.00,1920.00) scale(1,-1)"/><path d="M373.171875 498.498046875C374.265625 501.232421875 403.794921875 500.958984375 404.16015625 498.0419921875L425.212890625 15.8037109375L562.4716796875 17.26171875L559.919921875 189.0634765625L500.49609375 193.4375L479.533203125 692.6171875L380.736328125 700.0L144.58984375 267.2509765625L156.7119140625 700.0L20.0 698.4501953125L66.8466796875 2.4970703125L179.861328125 -1.7861328125ZM127.4921875 875.0224609375C127.4921875 875.0224609375 134.25 799.6875 159.361328125 782.0634765625C184.4736328125 764.439453125 207.94140625 757.7734375 251.5908203125 754.1201171875C295.2392578125 750.4677734375 335.509765625 748.2763671875 367.37890625 782.0634765625C399.248046875 815.849609375 399.248046875 865.8916015625 399.248046875 865.8916015625L364.0 870.0C364.0 870.0 357.060546875 830.00390625 347.2890625 820.2333984375C337.5185546875 810.4619140625 320.4423828125 804.6181640625 275.150390625 805.3486328125C229.857421875 806.0791015625 232.2314453125 804.435546875 217.0732421875 817.6767578125C201.9150390625 830.9169921875 196.2529296875 884.154296875 196.2529296875 884.154296875Z" transform="translate(6156.00,1920.00) scale(1,-1)"/><path d="M48.189453125 -24.5126953125 172.611328125 6.0263671875 157.3876953125 117.30859375 22.0 102.083984375Z" transform="translate(6758.00,1920.00) scale(1,-1)"/></g></svg>